# xmcd
#
# Track frame offsets: 
#        183
#        22038
#        39180
#        50868
#        70923
#        91898
#        105893
#        119683
#        142143
#        159040
#        177478
#        199043
#        216105
#        232325
#
# Disc length: 3308 seconds
#
# Revision: 2
# Processed by: cddbd v1.5.2PL0 Copyright (c) Steve Scherf et al.
# Submitted via: ExactAudioCopyFreeDBPlugin 1.0
#
DISCID=c80cea0e
DTITLE=Diversos - T.S.O. - Olho No Olho - Internacional
DYEAR=1993
DGENRE=Soundtrack
TTITLE0=4 Non Blondies - What's Up
TTITLE1=Apache Indian - Boom Shack-A-Lak
TTITLE2=Trinere - Boy You're The One
TTITLE3=Snow - Informer
TTITLE4=Easy Rider - How You Gonna See Me Now
TTITLE5=Isabele Camile - Vas-Y Vas-Y
TTITLE6=MC RNT - To Be With You
TTITLE7=Stereo MC's - Step It Up
TTITLE8=Take That - A Million Love Songs
TTITLE9=New Order - Regret
TTITLE10=Eros Ramazzotti - Cose Della Vita
TTITLE11=Deborah Blando - Merry-Go-Round
TTITLE12=Gilbert - Ca C'est Paris
TTITLE13=Rozalla - Are You Ready To Fly
EXTD=
EXTT0=
EXTT1=
EXTT2=
EXTT3=
EXTT4=
EXTT5=
EXTT6=
EXTT7=
EXTT8=
EXTT9=
EXTT10=
EXTT11=
EXTT12=
EXTT13=
PLAYORDER=
